<svg xmlns="http://www.w3.org/2000/svg" width="360.537" height="309.805"><g transform="translate(-843.5 -581.195)"><circle data-name="Ellipse 37" cx="154" cy="154" r="154" transform="translate(882.126 583)" fill="#f2f2f2"/><g data-name="Group 1575"><g data-name="digital design"><path data-name="Rectangle 2624" fill="#2f7879" d="M843.5 643.251h222.951v125.628H843.5z"/><path data-name="Rectangle 2625" fill="#fff" d="m854.234 636.785 220.768.925-.509 121.508-220.768-.925z"/><path data-name="Path 8888" d="M1075.435 760.2h-.969l-221.73-.969.523-123.428 222.689.969v.969Zm-220.766-2.859 218.851.93.509-119.59-218.853-.93Z" fill="#2f7879"/><path data-name="Line 44" fill="#fff" d="m970.368 602.226 91.087.383"/><path data-name="Rectangle 2644" fill="#2f7879" d="M961.709 752.718h221.57v89.042h-221.57z"/><path data-name="Rectangle 2645" fill="#fff" stroke="#2f7879" stroke-miterlimit="10" stroke-width="3" d="M971.715 742.018h221.57v88.354h-221.57z"/><path data-name="Line 45" fill="none" stroke="#2f7879" stroke-linecap="round" stroke-miterlimit="10" stroke-width="2" d="M1008.296 774.461h71.442"/><path data-name="Rectangle 2650" fill="#2f7879" d="M1007.264 787.918h31.062v11.737h-31.062z"/><path data-name="Rectangle 2651" fill="#fff" stroke="#2f7879" stroke-miterlimit="10" stroke-width="2.13" d="M1048.677 787.918h31.062v11.737h-31.062z"/><path data-name="Path 9153" d="M1133.295 742.663a1.236 1.236 0 0 1-1.231-1.236l.111-35.19a8.475 8.475 0 0 0-8.432-8.495l-48.715-.208a1.236 1.236 0 1 1 0-2.466l48.72.2a10.952 10.952 0 0 1 10.887 10.974l-.111 35.19a1.231 1.231 0 0 1-1.229 1.231Z" fill="#2f7879"/><path data-name="Line 1531" fill="none" stroke="#2f7879" stroke-linecap="round" stroke-miterlimit="10" stroke-width="2" d="M874.296 696.064H1048.5"/><path data-name="Line 1532" fill="none" stroke="#2f7879" stroke-linecap="round" stroke-miterlimit="10" stroke-width="2" d="M874.296 712.668H1048.5"/></g></g><g fill="none" stroke="#2f7879" stroke-miterlimit="10" stroke-width="1.5"><path data-name="Rectangle 2032" d="M1158.134 686.686h13.1a6 6 0 0 1 6 6v13.1h-19.1v-19.1Z"/><path data-name="Rectangle 2033" d="M1184.184 686.686h13.1a6 6 0 0 1 6 6v13.1h-19.1v-19.1Z"/><path data-name="Path 14412" d="M1196.341 674.561a11.903 11.903 0 0 0-.868-.033 11.289 11.289 0 0 0-11.289 11.285v2.6"/><path data-name="Path 14413" d="M1170.291 674.561a11.903 11.903 0 0 0-.868-.033 11.289 11.289 0 0 0-11.289 11.285v2.6"/></g><g transform="translate(1093.146 583)" fill="none" stroke="#2f7879" stroke-miterlimit="10" stroke-width="1.5"><g data-name="Group 1416"><path data-name="Path 14416" d="m18.696 60.39 16.3-32.112-4.8-18.213V0S4.268.525 4.796 0v10.065l-4.8 18.213 16.3 32.112"/><path data-name="Line 1126" d="M17.495 59.69V35.419"/><path data-name="Line 1127" d="M5.302 10.276h24.893"/></g><circle data-name="Ellipse 10" cx="2.377" cy="2.377" transform="translate(15.121 27.818)" r="2.377"/></g><g fill="none" stroke="#2f7879" stroke-miterlimit="10" stroke-width="1.5"><path data-name="Line 1121" d="M888.98 862.8h28.061"/><path data-name="Line 1122" d="M903.01 853.447v9.354"/><path data-name="Path 14414" d="m914.703 823.046.176 11.765a11.868 11.868 0 0 1-23.735 0V813.87a11.868 11.868 0 1 1 23.735 0v2.161"/><path data-name="Path 14415" d="M921.718 834.738a18.707 18.707 0 0 1-37.415 0"/><path data-name="Line 1123" d="M879.626 830.062h46.769"/><path data-name="Line 1124" d="M903.01 823.047h16.369"/><path data-name="Line 1125" d="M919.379 816.032H903.01"/></g><path data-name="Rectangle 2652" fill="#2f7879" d="M853.126 636h223v31h-223z"/><circle data-name="Ellipse 38" cx="4.5" cy="4.5" r="4.5" transform="translate(862.126 646)" fill="#fff"/><circle data-name="Ellipse 39" cx="4.5" cy="4.5" r="4.5" transform="translate(875.126 646)" fill="#fff"/><circle data-name="Ellipse 40" cx="16.5" cy="16.5" r="16.5" transform="translate(1120 765)" fill="#2f7879"/><g data-name="Ellipse 41" transform="translate(1138 782)" fill="none" stroke="#2f7879"><circle cx="12" cy="12" r="12" stroke="none"/><circle cx="12" cy="12" r="11.5"/></g></g></svg>