<?xml version="1.0" encoding="utf-8"?>
<!-- Generator: Adobe Illustrator 25.1.0, SVG Export Plug-In . SVG Version: 6.00 Build 0)  -->
<svg version="1.1" id="Layer_1" xmlns="http://www.w3.org/2000/svg" xmlns:xlink="http://www.w3.org/1999/xlink" x="0px" y="0px"
	 width="800px" height="150px" viewBox="0 0 800 150" style="enable-background:new 0 0 800 150;" xml:space="preserve">
<style type="text/css">
	.st0{fill:#4C8B8C;}
	.st1{fill:#8DC396;}
	.st2{fill:#FFFFFF;}
	.st3{fill:#D2E9F6;}
</style>
<g>
	<g>
		<path class="st2" d="M101.79,85.68l5.99,6.21c-3.95,4.31-9.65,6.8-15.5,6.8c-11.26,0-19.96-8.63-19.96-19.74
			c0-11.11,8.7-19.81,19.96-19.81c6.07,0,11.85,2.48,15.8,6.8l-6.14,6.51c-2.78-3.07-5.85-4.61-9.43-4.61
			c-5.78,0-10.24,4.82-10.24,11.11c0,6.29,4.53,10.97,10.46,10.97C96.16,89.91,99.09,88.6,101.79,85.68z"/>
		<path class="st2" d="M130.1,59.13c11.41,0,20.33,8.7,20.33,19.81c0,11.12-8.92,19.74-20.33,19.74s-20.33-8.63-20.33-19.74
			C109.77,67.83,118.69,59.13,130.1,59.13z M140.62,78.95c0-6.29-4.61-11.11-10.53-11.11c-5.85,0-10.53,4.82-10.53,11.11
			c0,6.14,4.61,11.04,10.53,11.04C136.02,89.99,140.62,85.09,140.62,78.95z"/>
		<path class="st2" d="M156.57,59.86h10.02v3c2.93-2.41,6.51-3.73,10.68-3.73c8.85,0,15.06,6.21,15.06,15.13v23.69h-10.02V75.73
			c0-4.82-3.07-7.97-7.9-7.97c-3.36,0-6.07,1.32-7.83,3.8v26.4h-10.02V59.86z"/>
		<path class="st2" d="M203.67,68.27h-7.83v-8.41h7.83v-9.73l10.02-2.27v11.99h10.82v8.41h-10.82v16.89c0,3.58,1.39,4.9,5.27,4.9
			c1.9,0,3.36-0.22,5.34-0.88v8.19c-2.12,0.66-5.56,1.17-7.75,1.17c-8.48,0-12.87-3.87-12.87-11.33V68.27z"/>
		<path class="st2" d="M229.48,59.86h10.02v4.17c2.41-3.29,5.92-5.04,10.16-5.04c1.97,0.07,3.14,0.29,4.17,0.88v8.77
			c-1.46-0.66-3.29-1.02-5.12-1.02c-3.88,0-7.31,1.97-9.21,5.7v24.64h-10.02V59.86z"/>
		<path class="st2" d="M258.52,49.63c0-3.15,2.56-5.7,5.7-5.7c3.14,0,5.7,2.56,5.7,5.7c0,3.14-2.56,5.7-5.7,5.7
			C261.07,55.33,258.52,52.77,258.52,49.63z M269.26,97.96h-10.02V59.86h10.02V97.96z"/>
		<path class="st2" d="M297.49,98.47c-3.8,0-7.46-1.1-10.53-3.07v2.56h-9.87V46.78l10.02-2.19v18.28c3-2.27,6.73-3.51,10.68-3.51
			c10.82,0,19.38,8.63,19.38,19.6S308.53,98.47,297.49,98.47z M287.11,71.49v14.99c2.19,2.19,5.49,3.51,9.07,3.51
			c6.29,0,11.11-4.75,11.11-11.04c0-6.29-4.9-11.04-11.11-11.04C292.52,67.9,289.38,69.15,287.11,71.49z"/>
		<path class="st2" d="M333.04,82.02c0,4.9,3.14,8.04,7.9,8.04c3.44,0,6.14-1.32,7.9-3.8v-26.4h10.02v38.09h-10.02v-3.07
			c-2.92,2.49-6.58,3.8-10.75,3.8c-8.85,0-15.06-6.29-15.06-15.21V59.86h10.02V82.02z"/>
		<path class="st2" d="M371.87,68.27h-7.83v-8.41h7.83v-9.73l10.02-2.27v11.99h10.82v8.41h-10.82v16.89c0,3.58,1.39,4.9,5.27,4.9
			c1.9,0,3.36-0.22,5.34-0.88v8.19c-2.12,0.66-5.56,1.17-7.75,1.17c-8.48,0-12.87-3.87-12.87-11.33V68.27z"/>
		<path class="st2" d="M415.89,59.13c11.41,0,20.33,8.7,20.33,19.81c0,11.12-8.92,19.74-20.33,19.74
			c-11.41,0-20.33-8.63-20.33-19.74C395.57,67.83,404.48,59.13,415.89,59.13z M426.42,78.95c0-6.29-4.61-11.11-10.53-11.11
			c-5.85,0-10.53,4.82-10.53,11.11c0,6.14,4.61,11.04,10.53,11.04C421.81,89.99,426.42,85.09,426.42,78.95z"/>
		<path class="st2" d="M442.37,59.86h10.02v4.17c2.41-3.29,5.92-5.04,10.16-5.04c1.97,0.07,3.14,0.29,4.17,0.88v8.77
			c-1.46-0.66-3.29-1.02-5.12-1.02c-3.87,0-7.31,1.97-9.21,5.7v24.64h-10.02V59.86z"/>
	</g>
	<g>
		<path class="st2" d="M626.06,98.23h-7.36V46.73l7.36-1.62V98.23z"/>
		<path class="st2" d="M633.94,50.19c0-2.51,1.98-4.56,4.49-4.56c2.5,0,4.56,2.06,4.56,4.56c0,2.5-2.06,4.56-4.56,4.56
			C635.92,54.75,633.94,52.69,633.94,50.19z M642.1,98.23h-7.36V60.78h7.36V98.23z"/>
		<path class="st2" d="M650.78,60.78h7.36v3.75c2.94-2.94,6.77-4.49,11.26-4.49c8.61,0,14.64,5.96,14.64,14.64v23.55h-7.36v-22.3
			c0-5.88-3.61-9.49-9.27-9.49c-3.97,0-7.21,1.69-9.27,4.86v26.93h-7.36V60.78z"/>
		<path class="st2" d="M692.5,46.73l7.36-1.62v32.15l18.18-16.48h8.61l-19.28,17.58l20.31,19.87h-9.71l-18.1-17.66v17.66h-7.36
			V46.73z"/>
	</g>
	<g>
		<g>
			<path class="st2" d="M598.47,52.95c-1.48-0.74-2.84-0.54-3.31-0.47c-3.76,0.56-6.98,2.21-9.83,3.66
				c-2.51,1.28-4.88,2.49-7.28,2.82c-3.23,0.45-6.61,0.4-10.2,0.34c-0.97-0.01-1.95-0.03-2.91-0.03
				c-6.86-0.03-13.71-0.04-20.57-0.04c-11.01,0-19.97,8.96-19.97,19.97c0,2.22,0.38,4.36,1.05,6.35h5.18c1.56,0,3.03-0.34,4.37-0.93
				c-0.93-1.6-1.51-3.44-1.51-5.42c0-5.99,4.88-10.87,10.87-10.87c6.84,0,13.68,0.01,20.53,0.04l2.81,0.03
				c3.77,0.06,7.67,0.12,11.59-0.43c3.91-0.54,7.23-2.24,10.16-3.73c0.08-0.04,0.17-0.08,0.25-0.13c-0.04,0.11-0.09,0.22-0.13,0.32
				l-0.57,1.41c-1.77,4.42-1.16,7.54-0.51,10.84l0.15,0.76c0.46,2.42-0.02,5.14-1.29,7.27c-1.63,2.74-4.47,4.69-7.58,5.21
				c-0.54,0.09-1.1,0.14-1.67,0.15c-0.01,0-0.01,0-0.01,0c-0.01,0-0.02,0-0.03,0c0,0-0.01,0-0.01,0c-0.01,0-0.01,0-0.02,0
				c0,0-0.01,0-0.02,0h-16.1h-4.62c-1.46,3.7-3.98,6.86-7.2,9.1h27.91c0.01,0,0.01,0,0.01,0s0.01,0,0.01,0s0.01,0,0.01,0
				c0,0,0.01,0,0.01,0c0,0,0,0,0,0c10.98-0.03,19.91-8.97,19.91-19.97c0-0.29-0.03-0.57-0.08-0.85c-0.04-0.88-0.15-1.75-0.31-2.61
				l-0.15-0.8c-0.54-2.75-0.74-3.78,0.03-5.7l0.55-1.38c1.12-2.76,2.27-5.62,3.1-8.66C601.8,56.64,600.71,54.07,598.47,52.95z"/>
		</g>
		<path class="st2" d="M555.13,77.82c-0.13-1.76-0.53-3.43-1.08-5.03h-10.16c1.37,1.82,2.22,4.05,2.22,6.5
			c0,0.36-0.07,0.7-0.11,1.05c-0.54,5.5-5.13,9.82-10.76,9.82c-6.84,0-13.68-0.01-20.53-0.04l-2.81-0.03
			c-3.77-0.06-7.67-0.12-11.59,0.43c-3.91,0.54-7.23,2.23-10.16,3.73c-0.08,0.04-0.17,0.09-0.25,0.13c0.04-0.1,0.08-0.2,0.12-0.3
			l0.58-1.43c1.77-4.42,1.16-7.54,0.51-10.84l-0.15-0.76c-0.46-2.41,0.02-5.13,1.29-7.26c1.63-2.74,4.47-4.69,7.58-5.21
			c0.26-0.04,0.53-0.08,0.79-0.1c0.01,0,0.02,0,0.02,0c0,0,0,0,0,0c0.23-0.02,0.47-0.03,0.71-0.04c0.02,0,0.04,0,0.05,0
			c0,0,0.01,0,0.01,0c0.01,0,0.01,0,0.02,0h0c0.01,0,0.02,0,0.03,0c0.01,0,0.01,0,0.02,0h0c0.01,0,0.01,0,0.01,0
			c0.01,0,0.01,0,0.02,0c0,0,0.01,0,0.02,0h0c0.01,0,0.01,0,0.01,0c0.01,0,0.01,0,0.02,0c0,0,0.01,0,0.02,0h20.79
			c1.51-3.72,4.09-6.89,7.38-9.1h-5.96H501.6c-0.01,0-0.01,0-0.01,0s-0.01,0-0.01,0c-0.01,0-0.01,0-0.01,0h-0.01
			c-10.99,0.03-19.91,8.97-19.91,19.97c0,0.29,0.03,0.57,0.08,0.84c0.04,0.88,0.15,1.76,0.31,2.62l0.15,0.8
			c0.54,2.75,0.74,3.78-0.03,5.7l-0.57,1.4c-1.11,2.75-2.27,5.6-3.09,8.63c-0.7,2.55,0.39,5.12,2.62,6.23
			c0.89,0.45,1.74,0.56,2.38,0.56c0.43,0,0.77-0.05,0.96-0.08c3.76-0.56,6.99-2.21,9.83-3.66c2.51-1.28,4.88-2.49,7.28-2.82
			c3.24-0.45,6.62-0.39,10.2-0.34c0.97,0.01,1.95,0.03,2.91,0.03c6.86,0.03,13.71,0.04,20.57,0.04c11.01,0,19.97-8.96,19.97-19.97
			C555.21,78.79,555.17,78.31,555.13,77.82z"/>
	</g>
</g>
</svg>
