<svg data-name="logo - light - stacked" xmlns="http://www.w3.org/2000/svg" width="146.321" height="46.922"><g data-name="Layer 1"><path data-name="Path 14366" d="m12.069 15.361 2.2 2.29a7.787 7.787 0 0 1-5.706 2.5 7.277 7.277 0 1 1 0-14.553 7.878 7.878 0 0 1 5.812 2.5l-2.259 2.393a4.53 4.53 0 0 0-3.471-1.684 3.875 3.875 0 0 0-3.765 4.091 3.859 3.859 0 0 0 3.846 4.036 4.348 4.348 0 0 0 3.339-1.574Z" fill="#d2e9f6"/><path data-name="Path 14367" d="M22.479 5.596a7.279 7.279 0 1 1-7.478 7.291 7.307 7.307 0 0 1 7.478-7.291Zm3.872 7.291a3.878 3.878 0 1 0-7.746 0 3.878 3.878 0 1 0 7.746 0Z" fill="#d2e9f6"/><path data-name="Path 14368" d="M32.222 5.871h3.669v1.1a6.025 6.025 0 0 1 3.93-1.372 5.317 5.317 0 0 1 5.541 5.57v8.712h-3.669v-8.179a2.736 2.736 0 0 0-2.906-2.936 3.369 3.369 0 0 0-2.881 1.4v9.715h-3.669Z" fill="#d2e9f6"/><path data-name="Path 14369" d="M49.55 8.957h-2.881V5.871h2.881V2.286l3.669-.833v4.418h4v3.093h-3.981v6.209c0 1.317.51 1.8 1.938 1.8a5.658 5.658 0 0 0 1.963-.323v3.016a11.606 11.606 0 0 1-2.851.429c-3.123 0-4.734-1.427-4.734-4.172Z" fill="#d2e9f6"/><path data-name="Path 14370" d="M59.049 5.871h3.669v1.534a4.462 4.462 0 0 1 3.743-1.857 3.222 3.222 0 0 1 1.53.323V9.1a4.7 4.7 0 0 0-1.882-.367 3.71 3.71 0 0 0-3.391 2.1v9.053h-3.669Z" fill="#d2e9f6"/><path data-name="Path 14371" d="M69.731 2.1a2.1 2.1 0 1 1 2.1 2.1 2.1 2.1 0 0 1-2.1-2.1Zm3.956 17.782h-3.688V5.871h3.688Z" fill="#d2e9f6"/><path data-name="Path 14372" d="M84.071 20.068a7.144 7.144 0 0 1-3.875-1.13v.944h-3.629V1.049l3.67-.807v6.73a6.5 6.5 0 0 1 3.93-1.29 7.108 7.108 0 0 1 7.141 7.207 7.126 7.126 0 0 1-7.236 7.181Zm-3.82-9.908v5.5a4.723 4.723 0 0 0 3.336 1.292 4.062 4.062 0 1 0 0-8.124 4.51 4.51 0 0 0-3.336 1.31Z" fill="#d2e9f6"/><path data-name="Path 14373" d="M97.15 14.017a2.753 2.753 0 0 0 2.906 2.958 3.38 3.38 0 0 0 2.906-1.4V5.871h3.67v14.017h-3.67v-1.137a5.959 5.959 0 0 1-3.956 1.4 5.341 5.341 0 0 1-5.545-5.6v-8.68h3.688Z" fill="#d2e9f6"/><path data-name="Path 14374" d="M111.439 8.957h-2.881V5.868h2.881V2.286l3.684-.818v4.4h3.981v3.1h-3.981v6.209c0 1.317.51 1.8 1.937 1.8a5.659 5.659 0 0 0 1.963-.323v3.014a11.58 11.58 0 0 1-2.851.429c-3.119 0-4.734-1.427-4.734-4.172Z" fill="#d2e9f6"/><path data-name="Path 14375" d="M127.637 5.596a7.279 7.279 0 1 1-7.478 7.291 7.3 7.3 0 0 1 7.478-7.291Zm3.875 7.291a3.881 3.881 0 1 0-7.75 0 3.879 3.879 0 1 0 7.75 0Z" fill="#d2e9f6"/><path data-name="Path 14376" d="M137.378 5.871h3.669v1.534a4.458 4.458 0 0 1 3.739-1.857 3.24 3.24 0 0 1 1.534.323V9.1a4.708 4.708 0 0 0-1.882-.367 3.706 3.706 0 0 0-3.391 2.1v9.053h-3.669Z" fill="#d2e9f6"/><path data-name="Path 14377" d="M52.117 44.052h-2.7v-18.95l2.7-.594Z" fill="#fff"/><path data-name="Path 14378" d="M55.02 26.377a1.662 1.662 0 1 1 .478 1.181 1.666 1.666 0 0 1-.478-1.181Zm3.005 17.676h-2.708V30.274h2.708Z" fill="#fff"/><path data-name="Path 14379" d="M61.218 30.274h2.708v1.38a5.677 5.677 0 0 1 4.143-1.651 5.149 5.149 0 0 1 5.387 5.387v8.664h-2.708v-8.2a3.209 3.209 0 0 0-3.413-3.493 3.893 3.893 0 0 0-3.409 1.787v9.908h-2.708Z" fill="#fff"/><path data-name="Path 14380" d="m76.568 25.102 2.7-.594v11.819l6.689-6.055h3.167l-7.093 6.469 7.475 7.31h-3.574l-6.664-6.495v6.495h-2.704Z" fill="#fff"/><path data-name="Path 14381" d="M44.229 27.389a2.033 2.033 0 0 0-1.218-.172 11.856 11.856 0 0 0-3.614 1.347 8.958 8.958 0 0 1-2.68 1.041 25.063 25.063 0 0 1-3.754.117h-8.638a7.339 7.339 0 0 0-6.968 9.684h1.9a3.993 3.993 0 0 0 1.607-.341 3.937 3.937 0 0 1-.543-2 4 4 0 0 1 4-4h8.587a27.421 27.421 0 0 0 4.264-.158 11.7 11.7 0 0 0 3.739-1.372l.092-.048-.048.121-.217.532a6.221 6.221 0 0 0-.187 3.989l.051.275a3.919 3.919 0 0 1-.473 2.675 4.062 4.062 0 0 1-2.784 1.916 4.279 4.279 0 0 1-.616.055h-7.648a7.372 7.372 0 0 1-2.649 3.354h10.274a7.357 7.357 0 0 0 7.339-7.339 1.762 1.762 0 0 0-.029-.312 7.018 7.018 0 0 0-.117-.961l-.055-.294a3.156 3.156 0 0 1 0-2.1l.2-.506a27.687 27.687 0 0 0 1.145-3.189 1.956 1.956 0 0 0-.961-2.312Z" fill="#d2e9f6"/><path data-name="Path 14382" d="M28.284 36.545a7.1 7.1 0 0 0-.4-1.835h-3.735a3.963 3.963 0 0 1 .815 2.37 3.4 3.4 0 0 1-.04.367 3.989 3.989 0 0 1-3.956 3.651h-8.59a27.433 27.433 0 0 0-4.264.158 11.643 11.643 0 0 0-3.736 1.31l-.092.048a.915.915 0 0 1 .04-.106l.213-.528a6.249 6.249 0 0 0 .191-3.99l-.055-.279a3.945 3.945 0 0 1 .473-2.66 4.069 4.069 0 0 1 2.789-1.915l.294-.037h8a7.376 7.376 0 0 1 2.725-3.376H8.568a7.339 7.339 0 0 0-7.338 7.339 1.761 1.761 0 0 0 .026.312 7.145 7.145 0 0 0 .117.965l.055.294a3.158 3.158 0 0 1 0 2.1l-.205.514a27.733 27.733 0 0 0-1.139 3.176 1.948 1.948 0 0 0 .961 2.293 1.93 1.93 0 0 0 .877.205 2.2 2.2 0 0 0 .367-.029 11.743 11.743 0 0 0 3.592-1.328 9.041 9.041 0 0 1 2.68-1.041 25.033 25.033 0 0 1 3.765-.125h8.642a7.357 7.357 0 0 0 7.339-7.339 4.185 4.185 0 0 0-.023-.514Z" fill="#fff"/></g></svg>