<svg id="Layer_1" data-name="Layer 1" xmlns="http://www.w3.org/2000/svg" viewBox="0 0 800 150"><defs><style>.cls-1{fill:#fff;}.cls-2{fill:#d2e9f6;}</style></defs><path class="cls-1" d="M193,52.89a5.51,5.51,0,0,0-3.31-.47,32.27,32.27,0,0,0-9.83,3.66,24.43,24.43,0,0,1-7.28,2.83,67.9,67.9,0,0,1-10.2.34l-2.91,0q-10.29,0-20.57,0a20,20,0,0,0-20,20A19.67,19.67,0,0,0,120,85.49h5.18a10.83,10.83,0,0,0,4.37-.93A10.76,10.76,0,0,1,128,79.14a10.88,10.88,0,0,1,10.87-10.87c6.85,0,13.68,0,20.53,0l2.81,0a76.87,76.87,0,0,0,11.59-.43A32.18,32.18,0,0,0,184,64.19l.25-.13c0,.11-.09.22-.13.32l-.57,1.41c-1.77,4.42-1.15,7.54-.51,10.84l.15.76a10.66,10.66,0,0,1-1.29,7.26,11,11,0,0,1-7.58,5.21,11.65,11.65,0,0,1-1.67.15H151.82a20.09,20.09,0,0,1-7.2,9.09h28a20,20,0,0,0,19.92-20,4.71,4.71,0,0,0-.08-.85,20.66,20.66,0,0,0-.31-2.61l-.16-.8c-.54-2.75-.74-3.78,0-5.71l.55-1.37a77,77,0,0,0,3.11-8.67A5.31,5.31,0,0,0,193,52.89Z"/><path class="cls-2" d="M149.66,77.77a19.94,19.94,0,0,0-1.08-5H138.42a10.71,10.71,0,0,1,2.22,6.49c0,.36-.08.7-.11,1a10.84,10.84,0,0,1-10.76,9.82q-10.28,0-20.53,0l-2.82,0a76.92,76.92,0,0,0-11.59.43c-3.91.54-7.23,2.24-10.15,3.73l-.25.13c0-.1.07-.2.12-.3l.57-1.43c1.77-4.43,1.16-7.54.52-10.84L85.49,81a10.55,10.55,0,0,1,1.29-7.26,11,11,0,0,1,7.57-5.21,7.28,7.28,0,0,1,.8-.1h0a5.63,5.63,0,0,1,.71,0h21a20.07,20.07,0,0,1,7.38-9.09H96.07a20,20,0,0,0-19.91,20,4.6,4.6,0,0,0,.08.84,19.12,19.12,0,0,0,.31,2.62l.16.8c.53,2.75.74,3.78,0,5.71l-.57,1.4A77,77,0,0,0,73,99.23a5.28,5.28,0,0,0,2.62,6.23A5.19,5.19,0,0,0,78,106a7.77,7.77,0,0,0,1-.07,32.34,32.34,0,0,0,9.84-3.66,24.43,24.43,0,0,1,7.28-2.83,69.16,69.16,0,0,1,10.19-.34l2.92,0q10.27.06,20.57,0a20,20,0,0,0,20-20C149.73,78.74,149.7,78.25,149.66,77.77Z"/><path class="cls-2" d="M236.2,85.75l6,6.22a21.13,21.13,0,0,1-15.51,6.81,19.79,19.79,0,1,1,0-39.58A21.43,21.43,0,0,1,242.5,66l-6.15,6.51c-2.78-3.07-5.85-4.61-9.44-4.61-5.78,0-10.24,4.83-10.24,11.12s4.54,11,10.46,11A11.81,11.81,0,0,0,236.2,85.75Z"/><path class="cls-2" d="M264.52,59.2c11.41,0,20.34,8.7,20.34,19.82s-8.93,19.76-20.34,19.76S244.18,90.14,244.18,79,253.1,59.2,264.52,59.2ZM275.05,79c0-6.29-4.61-11.12-10.53-11.12S254,72.73,254,79s4.61,11,10.54,11S275.05,85.17,275.05,79Z"/><path class="cls-2" d="M291,59.93h10v3A16.33,16.33,0,0,1,311.7,59.2c8.86,0,15.08,6.22,15.08,15.14V98.05h-10V75.8c0-4.82-3.07-8-7.9-8a9.15,9.15,0,0,0-7.83,3.8V98.05H291Z"/><path class="cls-2" d="M338.11,68.34h-7.83V59.93h7.83V50.2l10-2.27v12H359v8.41H348.14v16.9c0,3.59,1.39,4.9,5.26,4.9a15.41,15.41,0,0,0,5.35-.87v8.19A31.15,31.15,0,0,1,351,98.63c-8.49,0-12.88-3.88-12.88-11.34Z"/><path class="cls-2" d="M363.94,59.93h10V64.1a12.14,12.14,0,0,1,10.17-5,8.52,8.52,0,0,1,4.17.88v8.78a12.75,12.75,0,0,0-5.12-1A10.09,10.09,0,0,0,374,73.39V98.05h-10Z"/><path class="cls-2" d="M393,49.68a5.71,5.71,0,1,1,5.71,5.71A5.71,5.71,0,0,1,393,49.68Zm10.76,48.37h-10V59.93h10Z"/><path class="cls-2" d="M432,98.56a19.53,19.53,0,0,1-10.53-3.07v2.56h-9.88V46.83l10-2.19V62.93a17.63,17.63,0,0,1,10.68-3.51,19.57,19.57,0,0,1-.3,39.14Zm-10.38-27v15a12.83,12.83,0,0,0,9.07,3.51,11,11,0,1,0,0-22.09A12.27,12.27,0,0,0,421.59,71.56Z"/><path class="cls-2" d="M467.53,82.1c0,4.9,3.14,8,7.9,8a9.15,9.15,0,0,0,7.9-3.8V59.93h10V98.05h-10V95a16.19,16.19,0,0,1-10.75,3.81c-8.86,0-15.08-6.29-15.08-15.22V59.93h10Z"/><path class="cls-2" d="M506.37,68.34h-7.82V59.93h7.82V50.2l10-2.27v12h10.83v8.41H516.4v16.9c0,3.59,1.39,4.9,5.27,4.9a15.39,15.39,0,0,0,5.34-.87v8.19a31.08,31.08,0,0,1-7.76,1.17c-8.49,0-12.88-3.88-12.88-11.34Z"/><path class="cls-2" d="M550.42,59.2c11.41,0,20.34,8.7,20.34,19.82s-8.93,19.76-20.34,19.76S530.08,90.14,530.08,79,539,59.2,550.42,59.2ZM561,79c0-6.29-4.61-11.12-10.53-11.12S539.88,72.73,539.88,79s4.61,11,10.54,11S561,85.17,561,79Z"/><path class="cls-2" d="M576.9,59.93h10V64.1a12.14,12.14,0,0,1,10.17-5,8.52,8.52,0,0,1,4.17.88v8.78a12.75,12.75,0,0,0-5.12-1,10.09,10.09,0,0,0-9.22,5.71V98.05h-10Z"/><path class="cls-1" d="M611.23,94a4.65,4.65,0,0,1-4.61,4.68A4.71,4.71,0,0,1,601.94,94a4.65,4.65,0,0,1,4.68-4.61A4.59,4.59,0,0,1,611.23,94Z"/><path class="cls-1" d="M626.16,98.05h-7.32V46.83l7.32-1.61Z"/><path class="cls-1" d="M634,50.27a4.5,4.5,0,0,1,4.46-4.54,4.54,4.54,0,0,1,0,9.08A4.5,4.5,0,0,1,634,50.27Zm8.12,47.78h-7.31V60.81h7.31Z"/><path class="cls-1" d="M650.73,60.81h7.32v3.73a15.34,15.34,0,0,1,11.2-4.47c8.56,0,14.56,5.93,14.56,14.56V98.05h-7.32V75.88c0-5.86-3.59-9.44-9.22-9.44a10.52,10.52,0,0,0-9.22,4.83V98.05h-7.32Z"/><path class="cls-1" d="M692.21,46.83l7.32-1.61v32L717.6,60.81h8.56L707,78.29l20.2,19.76h-9.66l-18-17.56V98.05h-7.32Z"/></svg>