<svg xmlns="http://www.w3.org/2000/svg" width="360.908" height="309.544"><defs><clipPath id="a"><path fill="none" d="M0 0h112.739v103H0z"/></clipPath></defs><g transform="translate(-179.919 -989.956)"><circle data-name="Ellipse 37" cx="154" cy="154" r="154" transform="translate(193.538 991.5)" fill="#f2f2f2"/><g data-name="Rectangle 2657" fill="#2f7879" stroke="#2f7879" stroke-width="3"><path stroke="none" d="m179.919 1077.177 139.514-74.102 88.172 166.004-139.514 74.102z"/><path fill="none" d="m181.947 1077.798 136.865-72.695 86.765 163.355-136.865 72.695z" stroke-width="2.99946"/></g><g data-name="bottom paper" fill="#fff" stroke="#2f7879" stroke-width="3"><path stroke="none" d="m185.439 1064.133 139.514-74.102 88.172 166.004-139.514 74.102z"/><path fill="none" d="m187.467 1064.754 136.865-72.695 86.765 163.355-136.865 72.695z" stroke-width="2.99946"/></g><g data-name="Group 1578" fill="none" stroke="#2f7879" stroke-linecap="round" stroke-miterlimit="10" stroke-width="2"><path data-name="Line 1536" d="m228.556 1101.609 60.619-32.182"/><path data-name="Line 1537" d="m247.748 1136.707 47.635-25.328"/><path data-name="Line 1535" d="m237.944 1119.268 54.274-28.858"/></g><g data-name="top paper" fill="#2f7879" stroke="#2f7879" stroke-width="3"><path stroke="none" d="M280.244 1052.874h170v203h-170z"/><path fill="none" d="M281.744 1054.374h167v200h-167z"/></g><g data-name="top paper" fill="#fff" stroke="#2f7879" stroke-width="3"><path stroke="none" d="M288.802 1044h170v203h-170z"/><path fill="none" d="M290.302 1045.5h167v200h-167z"/></g><g data-name="Repeat Grid 1" transform="translate(317.933 1125)" clip-path="url(#a)" stroke="#2f7879" stroke-width="2"><path data-name="Line 1533" fill="none" stroke-linecap="round" stroke-miterlimit="10" d="M40.297 5.461H103"/><path data-name="Line 1534" fill="none" stroke-linecap="round" stroke-miterlimit="10" d="M40.297 15.461h71.442"/><g data-name="Rectangle 2656" fill="#fff"><path stroke="none" d="M3.067 4h14v14h-14z"/><path fill="none" d="M4.067 5h12v12h-12z"/></g><g><path data-name="Line 1533" fill="none" stroke-linecap="round" stroke-miterlimit="10" d="M40.297 44.461H103"/><path data-name="Line 1534" fill="none" stroke-linecap="round" stroke-miterlimit="10" d="M40.297 54.461h71.442"/><g data-name="Rectangle 2656" fill="#fff"><path stroke="none" d="M3.067 43h14v14h-14z"/><path fill="none" d="M4.067 44h12v12h-12z"/></g></g><g><path data-name="Line 1533" fill="none" stroke-linecap="round" stroke-miterlimit="10" d="M40.297 83.461H103"/><path data-name="Line 1534" fill="none" stroke-linecap="round" stroke-miterlimit="10" d="M40.297 93.461h71.442"/><g data-name="Rectangle 2656" fill="#fff"><path stroke="none" d="M3.067 82h14v14h-14z"/><path fill="none" d="M4.067 83h12v12h-12z"/></g></g></g><g data-name="Group 1577" transform="translate(-166.198 -46.313)"><circle data-name="Ellipse 47" cx="20.148" cy="20.148" r="20.148" transform="translate(474.131 1111)" fill="#2f7879"/><g data-name="Ellipse 48" transform="translate(496.131 1129)" fill="none" stroke="#2f7879" stroke-width="2"><circle cx="13.148" cy="13.148" r="13.148" stroke="none"/><circle cx="13.148" cy="13.148" r="12.148"/></g><path data-name="Line 1533" fill="none" stroke="#2f7879" stroke-linecap="round" stroke-miterlimit="10" stroke-width="3" d="M538.4 1129h53.95"/><path data-name="Line 1534" fill="none" stroke="#2f7879" stroke-linecap="round" stroke-miterlimit="10" stroke-width="3" d="M538.4 1139h61.469"/></g><rect data-name="Rectangle 2655" width="55" height="12.916" rx="3" transform="rotate(-28 2252.352 115.111)" fill="#2f7879"/><path data-name="Path 14628" d="m324.946 1135.125 4.032 4.032 10.461-10.461" fill="none" stroke="#2f7879" stroke-linecap="round" stroke-width="2"/><g data-name="Group 1579" fill="none" stroke="#2f7879" stroke-miterlimit="10" stroke-width="1.5"><g data-name="Group 1412"><path data-name="Path 14410" d="M240.133 1249.526a18.98 18.98 0 1 1-37.96 0v-24.09a18.98 18.98 0 1 1 37.96 0Z"/><path data-name="Line 1112" d="M221.154 1215.946v17.795"/></g><g data-name="Group 1413"><path data-name="Line 1113" d="M516.187 1137.27h2.389"/><path data-name="Line 1114" d="M518.576 1130.103h2.389"/><path data-name="Line 1115" d="M509.02 1137.27h-2.389"/><path data-name="Line 1116" d="M509.02 1130.103h2.389"/><path data-name="Line 1117" d="M525.743 1137.27h4.778"/><path data-name="Line 1118" d="M528.132 1144.437h2.389"/><path data-name="Line 1119" d="M530.521 1130.103h-2.389"/><path data-name="Line 1120" d="M499.464 1144.437h21.502"/><path data-name="Rectangle 2031" d="M477.962 1120.553h62.116V1154h-62.116z"/><path data-name="Path 14411" d="M508.751 1120.552v-4.778a4.78 4.78 0 0 0-4.778-4.778h-11.946a4.777 4.777 0 0 1-4.778-4.778 4.778 4.778 0 0 1 4.778-4.778h33.447a4.778 4.778 0 0 0 4.778-4.778 4.78 4.78 0 0 0-4.778-4.778h-16.723"/></g></g></g></svg>