<svg data-name="logo - light - horizontal" xmlns="http://www.w3.org/2000/svg" width="706.992" height="67.109"><g data-name="Layer 1"><path data-name="Path 14349" d="m31.791 45.051 6.462 6.745a22.779 22.779 0 0 1-16.721 7.272A21.108 21.108 0 0 1 .001 37.796a21.176 21.176 0 0 1 21.531-21.379 23.133 23.133 0 0 1 17.042 7.34l-6.631 7.019a13.313 13.313 0 0 0-10.124-5.062c-6.226 0-11.035 5.214-11.035 12a11.305 11.305 0 0 0 11.271 11.809 12.756 12.756 0 0 0 9.736-4.471Z" fill="#d0eaf6"/><path data-name="Path 14350" d="M62.314 16.417a21.345 21.345 0 1 1 0 42.673 21.345 21.345 0 1 1 0-42.673ZM73.67 37.794a11.373 11.373 0 1 0-22.711 0 11.373 11.373 0 1 0 22.711 0Z" fill="#d0eaf6"/><path data-name="Path 14351" d="M90.864 17.211h10.816v3.24a17.565 17.565 0 0 1 11.507-4.033 15.591 15.591 0 0 1 16.249 16.333v25.546h-10.8V34.321a8.015 8.015 0 0 0-8.437-8.589 9.837 9.837 0 0 0-8.437 4.1v28.465H90.864Z" fill="#d0eaf6"/><path data-name="Path 14352" d="M141.737 26.27H133.3v-9.059h8.437V6.77l10.815-2.45v12.942h11.659v9.061h-11.726v18.223c0 3.864 1.485 5.281 5.669 5.281a16.586 16.586 0 0 0 5.754-.945v8.842a33.46 33.46 0 0 1-8.437 1.249c-9.145 0-13.887-4.168-13.887-12.216Z" fill="#d0eaf6"/><path data-name="Path 14353" d="M169.51 17.21h10.816v4.488a13.06 13.06 0 0 1 10.968-5.433 9.263 9.263 0 0 1 4.488.945v9.466a13.819 13.819 0 0 0-5.518-1.114 10.85 10.85 0 0 0-9.938 6.159v26.576H169.51Z" fill="#d0eaf6"/><path data-name="Path 14354" d="M200.793 6.176a6.159 6.159 0 1 1 6.159 6.142 6.159 6.159 0 0 1-6.159-6.142Zm11.592 52.122h-10.8V17.21h10.8Z" fill="#d0eaf6"/><path data-name="Path 14355" d="M242.872 58.854a21.024 21.024 0 0 1-11.356-3.375v2.75h-10.644V3.088l10.8-2.362v19.725a19.033 19.033 0 0 1 11.524-3.8 20.839 20.839 0 0 1 20.889 21.142 20.889 20.889 0 0 1-21.213 21.061Zm-11.2-29.106v16.165a13.87 13.87 0 0 0 9.787 3.8 11.913 11.913 0 0 0 0-23.825 13.229 13.229 0 0 0-9.787 3.864Z" fill="#d0eaf6"/><path data-name="Path 14356" d="M281.211 41.104a8.082 8.082 0 0 0 8.521 8.673 9.9 9.9 0 0 0 8.437-4.1V17.211h10.8v41.086h-10.8v-3.376a17.5 17.5 0 0 1-11.508 4.151c-9.55 0-16.249-6.749-16.249-16.4V17.211h10.8Z" fill="#d0eaf6"/><path data-name="Path 14357" d="M323.091 26.27h-8.437v-9.059h8.437V6.77l10.815-2.45v12.942h11.676v9.061h-11.676v18.223c0 3.864 1.5 5.281 5.669 5.281a16.738 16.738 0 0 0 5.771-.945v8.842a33.746 33.746 0 0 1-8.437 1.249c-9.145 0-13.887-4.168-13.887-12.216Z" fill="#d0eaf6"/><path data-name="Path 14358" d="M370.589 16.418a21.412 21.412 0 1 1-15.465 6.071 21.345 21.345 0 0 1 15.468-6.072Zm11.356 21.377a11.373 11.373 0 1 0-22.711 0 11.373 11.373 0 1 0 22.712 0Z" fill="#d0eaf6"/><path data-name="Path 14359" d="M399.139 17.21h10.883v4.488a13.111 13.111 0 0 1 10.967-5.433 9.331 9.331 0 0 1 4.505.945v9.466a13.9 13.9 0 0 0-5.534-1.114 10.883 10.883 0 0 0-9.938 6.159v26.576h-10.8Z" fill="#d0eaf6"/><path data-name="Path 14360" d="M597.315 58.601h-7.947V3.037l7.947-1.687Z" fill="#fff"/><path data-name="Path 14361" d="M605.752 6.766a4.876 4.876 0 0 1 4.843-4.91 4.927 4.927 0 1 1-4.843 4.91Zm8.808 51.835h-7.93V18.207h7.93Z" fill="#fff"/><path data-name="Path 14362" d="M623.941 18.206h7.93v4.05a16.621 16.621 0 0 1 12.149-4.843 15.068 15.068 0 0 1 15.727 15.794v25.31h-7.93V34.556c0-6.361-3.9-10.242-10.006-10.242a11.44 11.44 0 0 0-10.006 5.231v29.052h-7.93Z" fill="#fff"/><path data-name="Path 14363" d="m668.943 3.037 7.931-1.687v34.624l19.607-17.768h9.28l-20.7 18.932 21.932 21.429h-10.462l-19.658-19.016v19.05h-7.93Z" fill="#fff"/><path data-name="Path 14364" d="M567.517 9.753a5.72 5.72 0 0 0-3.577-.506 34.573 34.573 0 0 0-10.613 3.948 25.851 25.851 0 0 1-7.846 3.037 70.867 70.867 0 0 1-11 .371h-25.328a21.514 21.514 0 0 0-20.4 28.4h5.636a11.626 11.626 0 0 0 4.725-1.012 11.525 11.525 0 0 1-1.687-5.855 11.811 11.811 0 0 1 11.727-11.71h25.178a82.378 82.378 0 0 0 12.5-.472 34.892 34.892 0 0 0 10.966-4.015l.27-.135-.152.337-.607 1.519a18.359 18.359 0 0 0-.557 11.693l.169.81a11.591 11.591 0 0 1-1.4 7.846 11.9 11.9 0 0 1-8.167 5.619 10.716 10.716 0 0 1-1.805.152h-22.476a21.749 21.749 0 0 1-7.762 9.82h30.153a21.564 21.564 0 0 0 21.48-21.547 5.545 5.545 0 0 0 0-.911 19.765 19.765 0 0 0-.338-2.818l-.169-.861c-.574-2.97-.793-4.066 0-6.159l.591-1.485a81.126 81.126 0 0 0 3.375-9.331 5.737 5.737 0 0 0-2.885-6.732Z" fill="#d0eaf6"/><path data-name="Path 14365" d="M520.779 36.581a22.419 22.419 0 0 0-1.164-5.433h-10.968a11.66 11.66 0 0 1 2.4 7c0 .388-.084.759-.118 1.131a11.693 11.693 0 0 1-11.609 10.6h-25.179a82.375 82.375 0 0 0-12.5.472 34.488 34.488 0 0 0-10.968 4.016l-.253.135a.385.385 0 0 1 .118-.321l.624-1.535a18.358 18.358 0 0 0 .557-11.693l-.169-.827a11.473 11.473 0 0 1 1.4-7.829 11.9 11.9 0 0 1 8.167-5.619l.861-.1h23.468a21.631 21.631 0 0 1 7.947-9.82h-30.372a21.564 21.564 0 0 0-21.53 21.4 5.232 5.232 0 0 0 .084.911 20.233 20.233 0 0 0 .337 2.835l.169.861c.574 2.97.793 4.066 0 6.142l-.607 1.519a84.076 84.076 0 0 0-3.375 9.314 5.7 5.7 0 0 0 2.835 6.749 5.568 5.568 0 0 0 2.565.607 6.344 6.344 0 0 0 1.029 0 34.572 34.572 0 0 0 10.614-3.961 25.85 25.85 0 0 1 7.846-3.037 73.211 73.211 0 0 1 11-.371h25.328a21.564 21.564 0 0 0 21.53-21.581c0-.519-.034-1.011-.067-1.565Z" fill="#fff"/></g></svg>